<?xml version="1.0" standalone="no"?>
<!DOCTYPE svg PUBLIC "-//W3C//DTD SVG 1.1//EN" "http://www.w3.org/Graphics/SVG/1.1/DTD/svg11.dtd">
<svg xmlns="http://www.w3.org/2000/svg">
<metadata>Generated by Fontastic.me</metadata>
<defs>
<font id="mq" horiz-adv-x="512">
<font-face font-family="mq" units-per-em="512" ascent="480" descent="-32"/>
<missing-glyph horiz-adv-x="512" />

<glyph glyph-name="refresh" unicode="&#98;" d="M141 148c0 0 60 60 60 60 0 0 0-150 0-150 0 0-142 9-142 9 0 0 45 44 45 44-39 41-59 91-58 148 1 57 21 107 62 148 34 34 75 53 122 59 0 0 2-52 2-52-34-6-63-21-88-45-30-30-45-67-46-109 0-43 14-80 43-112m170 307c0 0 142-9 142-9 0 0-45-44-45-44 39-41 59-91 58-148-1-57-21-107-62-148-32-33-73-53-122-60 0 0-1 53-1 53 33 6 62 21 87 45 30 30 45 67 46 109 0 43-14 80-43 112 0 0-59-60-59-60 0 0-1 150-1 150"/>
<glyph glyph-name="delete-item" unicode="&#97;" d="M100 12c0-7 5-12 12-12l288 0c6 0 11 5 11 12l0 368-311 0z m220 305l42 0 0-248-42 0z m-85 0l42 0 0-248-42 0z m-86 0l43 0 0-248-43 0z m203 143l0 41c0 6-5 11-12 11l-169 0c-6 0-11-5-11-11l0-55-79 0c-7 0-12-6-12-12l0-29c0-6 5-11 12-11l350 0c6 0 11 5 11 11l0 29c0 6-5 12-11 12l-79 0z m-43-12l-106 0 0 21 106 0z"/>
<glyph glyph-name="caret-down" unicode="&#101;" d="M402 311c0-5-2-9-5-13l-128-128c-4-4-8-5-13-5-5 0-9 1-13 5l-128 128c-3 4-5 8-5 13 0 5 2 9 5 13 4 3 8 5 13 5l256 0c5 0 9-2 13-5 3-4 5-8 5-13z"/>
<glyph glyph-name="caret-down" unicode="&#101;" d="M402 311c0-5-2-9-5-13l-128-128c-4-4-8-5-13-5-5 0-9 1-13 5l-128 128c-3 4-5 8-5 13 0 5 2 9 5 13 4 3 8 5 13 5l256 0c5 0 9-2 13-5 3-4 5-8 5-13z"/>
<glyph glyph-name="quiz-faved" unicode="&#102;" d="M263 50l-211 0c-9 0-17 8-17 18l0 381c0 10 8 17 17 17l286 0c10 0 18-7 18-17l0-167c7 4 15 6 25 6l4 0 2 0c1 0 2 0 3 0l0 161c0 29-23 52-52 52l-286 0c-29 0-52-23-52-52l0-381c0-29 23-53 52-53l218 0c-5 9-8 21-7 35z m180-39c-14 0-29 8-45 17-4 3-13 8-17 9-4-1-13-6-17-9-15-8-31-16-44-16l-1 0c-7 0-13 2-18 5l0 0c-18 14-13 39-8 63 1 6 3 15 3 20-3 3-10 10-14 14-18 17-36 34-29 55 7 22 32 25 57 28 5 0 14 1 19 3 3 4 7 12 9 17 11 22 22 45 44 46l1 0 1-1c21-1 31-23 42-45 2-5 6-14 8-18 5-1 14-2 20-3l0 0c25-3 50-7 57-28 6-21-12-38-30-55l-1-1c-4-3-11-10-13-13 0-5 2-15 3-20 4-24 9-49-9-62-5-4-11-6-18-6z m0 34l0-17z m-62 27c9 0 19-5 34-14 7-4 18-10 24-12 1 7-2 19-3 27-4 19-5 29-3 37 3 8 11 15 24 27l0 1c6 5 15 14 19 19-6 2-18 4-26 5l-1 0c-17 2-28 4-35 9-7 5-12 15-19 31-4 8-9 19-13 24-4-5-9-16-13-24-8-17-13-26-19-31-7-4-17-6-36-8-8-1-21-3-27-5 4-5 13-14 19-20 13-12 21-20 23-28 3-8 1-19-2-36-2-8-4-20-4-27 6 2 17 8 24 12 15 8 25 13 34 13z m-299 299l227 0 0-35-227 0z m0-94l227 0 0-35-227 0z m0-94l138 0 0-35-138 0z"/>
<glyph glyph-name="quiz-started" unicode="&#103;" d="M230 41l-175 0c-10 0-19 9-19 19l0 397c0 10 9 19 19 19l298 0c10 0 18-9 18-19l0-154c4 0 9 0 13 0 8 0 16-1 24-2l0 156c0 31-25 55-55 55l-298 0c-31 0-55-24-55-55l0-397c0-31 24-55 55-55l205 0c-12 11-22 23-30 36z m277 96c-2 68-57 122-124 125-37 1-71-13-97-39-24-26-37-59-36-94 3-67 57-122 124-124 2 0 3 0 5 0 35 0 67 14 92 39 24 25 37 58 36 93z m-56-74c-19-20-45-31-72-31-1 0-3 0-4 0-53 2-96 45-98 98 0 28 10 54 29 74 19 20 45 31 73 31 1 0 2 0 3 0 53-2 96-45 98-98 1-28-9-54-29-74z m-72-62c-2 0-3 0-5 0-69 2-126 58-128 128-1 36 12 71 37 97 27 27 62 41 100 40 70-2 126-59 128-128 1-37-12-71-37-97-25-26-59-40-95-40z m0 256c-34 0-66-13-89-38-24-24-36-56-35-90 2-65 55-117 120-119 35-2 68 12 93 37 23 24 35 56 34 90-2 65-54 118-119 120-2 0-3 0-4 0z m0-229c-2 0-3 0-4 0-55 1-100 46-102 102-1 29 10 56 30 77 21 21 49 33 79 32 56-2 101-47 102-102 1-29-9-57-29-77-21-21-47-32-76-32z m0 202c-27 0-52-10-70-29-18-19-28-44-27-71 2-51 43-92 93-93 2-1 3-1 4-1 26 0 51 11 69 30 19 19 28 44 27 70-1 51-42 92-93 94-1 0-2 0-3 0z m42-89l-57 41c-6 4-15 0-15-8l0-82c0-7 9-11 15-7l57 41c5 3 5 11 0 15z m-335 235l236 0 0-36-236 0z m0-98l146 0 0-37-146 0z m0-99l93 0 0-36-93 0z"/>
<glyph glyph-name="settings-empty" unicode="&#104;" d="M486 310l-36 6c-4 12-9 24-15 35l22 29c9 13 7 30-4 41l-32 32c-6 6-14 9-22 9-7 0-13-2-18-6l-30-21c-12 6-24 11-36 15l-6 36c-3 15-16 26-31 26l-45 0c-16 0-29-11-32-26l-6-37c-12-4-24-8-35-14l-29 21c-5 4-12 6-18 6-9 0-17-4-23-10l-32-32c-11-10-12-28-3-40l21-30c-6-12-10-23-14-35l-36-6c-15-3-26-16-26-32l0-45c0-15 11-28 26-31l37-6c4-12 8-24 14-35l-21-29c-9-13-7-30 4-41l32-32c6-6 14-9 22-9 7 0 13 2 18 6l30 21c11-5 23-10 34-14l6-36c3-15 16-26 31-26l46 0c15 0 28 11 31 26l6 36c12 4 24 9 35 15l29-21c6-4 12-6 19-6 8 0 16 3 22 9l32 32c11 11 12 28 3 41l-21 29c6 12 11 23 15 35l36 6c15 3 26 16 26 31l0 46c0 15-11 28-26 31z m-3-77c0-1-1-2-2-2l-45-8c-6-1-10-5-11-10-5-16-11-31-19-45-3-5-3-11 1-16l26-37c1-1 1-3 0-4l-32-32c-1 0-2 0-2 0-1 0-1 0-2 0l-37 26c-5 4-11 4-16 1-14-8-29-14-45-19-5-1-9-5-10-11l-8-45c0-1-1-2-2-2l-46 0c-1 0-2 1-2 2l-8 45c-1 6-5 10-10 11-16 4-30 11-44 18-2 2-5 2-7 2-3 0-6 0-9-2l-37-27c-1 0-1 0-2 0 0 0-1 0-2 0l-32 32c-1 1-1 3 0 4l26 37c4 5 4 11 1 16-8 14-15 29-19 44-1 6-6 10-12 11l-45 8c-1 0-2 1-2 2l0 45c0 2 1 3 2 3l45 8c6 1 10 5 11 10 4 16 11 31 19 45 3 5 2 11-1 16l-27 37c0 1 0 3 1 4l32 32c0 1 1 1 2 1 0 0 1 0 1-1l37-26c5-3 11-4 16-1 14 9 29 15 45 19 5 2 9 6 10 12l8 45c0 1 1 2 3 2l45 0c1 0 2-1 3-2l7-45c1-5 5-10 11-11 16-4 31-11 46-19 5-3 11-3 15 0l37 27c1 0 1 0 2 0 0 0 1 0 2 0l32-32c1-1 1-3 0-4l-26-37c-4-5-4-11-1-16 8-14 15-29 19-45 1-5 6-9 11-10l45-8c1 0 2-1 2-2l0-46z m-227 134c-61 0-110-50-110-111 0-61 49-110 110-110 61 0 111 49 111 110 0 61-50 111-111 111z m0-193c-45 0-82 37-82 82 0 45 37 82 82 82 45 0 82-37 82-82 0-45-37-82-82-82z"/>
<glyph glyph-name="ban" unicode="&#106;" d="M411 257c0 31-8 59-24 84l-216-215c26-17 55-25 85-25 21 0 41 4 60 12 20 8 36 19 50 33 14 14 25 31 33 50 8 19 12 40 12 61z m-285-86l216 216c-26 17-55 26-86 26-28 0-54-7-78-21-24-14-43-33-57-57-13-24-20-50-20-78 0-31 8-59 25-86z m349 86c0-30-5-59-17-86-12-27-27-51-47-70-19-20-43-35-70-47-27-12-55-17-85-17-30 0-58 5-85 17-27 12-51 27-70 47-20 19-35 43-47 70-12 27-17 56-17 86 0 30 5 58 17 85 12 28 27 51 47 71 19 19 43 35 70 46 27 12 55 18 85 18 30 0 58-6 85-18 27-11 51-27 70-46 20-20 35-43 47-71 12-27 17-55 17-85z"/>
<glyph glyph-name="facebook" unicode="&#107;" d="M189 414c0-13 0-70 0-70l-51 0 0-85 51 0 0-253 105 0 0 253 71 0c0 0 6 41 9 86-9 0-79 0-79 0 0 0 0 49 0 58 0 9 11 20 22 20 12 0 36 0 58 0 0 12 0 52 0 89-30 0-63 0-78 0-110 0-108-85-108-98z"/>
<glyph glyph-name="instagram" unicode="&#108;" d="M371 512l-230 0c-78 0-141-63-141-141l0-230c0-78 63-142 141-142l230 0c78 0 142 64 142 142l0 230c0 78-64 141-142 141z m96-371c0-53-43-96-96-96l-230 0c-52 0-96 43-96 96l0 230c0 52 44 96 96 96l230 0c53 0 96-44 96-96z m-211 247c-73 0-132-60-132-132 0-73 60-132 132-132 73 0 132 59 132 132 0 72-59 132-132 132z m0-219c-47 0-86 39-86 87 0 47 39 86 86 86 48 0 87-39 87-86 0-48-39-87-87-87z m138 257c-9 0-17-3-24-9-6-7-9-15-9-24 0-9 3-17 9-24 7-6 15-9 24-9 9 0 17 3 24 9 6 7 9 15 9 24 0 9-3 17-9 24-7 6-15 9-24 9z"/>
<glyph glyph-name="twitter" unicode="&#109;" d="M514 417c-19-9-39-14-61-17 22 13 39 34 47 58-21-12-43-21-67-25-19 20-47 33-77 33-58 0-106-47-106-105 0-9 1-17 3-24-87 4-165 46-217 110-9-16-14-34-14-53 0-37 18-69 46-88-17 1-33 5-47 13l0-1c0-51 36-94 84-103-9-3-18-4-28-4-6 0-13 1-19 2 13-42 52-73 98-73-36-29-81-45-131-45-8 0-17 0-25 1 47-30 102-47 162-47 194 0 300 160 300 300l-1 13c21 15 39 34 53 55z"/>
<glyph glyph-name="vk" unicode="&#110;" d="M436 215c17-17 35-32 50-50 7-8 13-17 18-26 7-13 0-28-11-29l-74 0c-19-1-35 7-47 20-11 10-20 21-30 32-4 4-8 8-13 12-10 6-19 4-25-6-6-11-7-23-8-35 0-17-6-22-23-23-37-1-73 4-106 23-29 17-51 40-71 67-38 51-67 108-93 167-6 13-2 20 12 20 25 0 49 0 73 0 10 0 16-6 20-15 13-32 29-62 49-91 5-7 11-15 18-20 9-6 15-4 19 6 3 6 4 12 5 19 2 22 2 44-1 66-2 14-10 23-24 26-7 1-6 4-3 8 6 7 12 11 23 11l83 0c14-3 16-8 18-22l0-92c0-5 3-21 12-24 7-2 12 3 17 8 20 21 34 46 47 72 5 12 10 24 15 35 3 9 9 14 19 13l80 0c3 0 5 0 7 0 14-2 18-8 13-21-6-21-19-39-32-56-13-18-27-36-41-55-12-17-11-26 4-40z"/>
<glyph glyph-name="share-quiz" unicode="&#112;" d="M81 391l194 0 0-30-194 0z m0-81l133 0 0-29-133 0z m0-80l78 0 0-30-78 0z m385-134c-14 0-28-7-36-18l-79 40c1 4 2 8 2 13 0 4-1 8-2 13l78 40c9-12 22-19 37-19 26 0 47 21 47 47 0 25-21 46-47 46-25 0-46-21-46-46 0-5 1-9 2-12l-79-41c-9 11-22 18-37 18-25 0-46-21-46-46 0-26 21-47 46-47 16 0 29 7 37 19l79-40c-1-5-2-9-2-14 0-25 21-46 46-46 26 0 47 21 47 46 0 26-21 47-47 47z m-165 412l-245 0c-31 0-56-25-56-55l0-327c0-31 25-56 56-56l154 0-7 16c-4 8-6 17-8 27l-1 9-138 0c-2 0-4 2-4 4l0 327c0 2 2 3 4 3l245 0c2 0 4-1 4-3l0-210 10 0c9-1 18-3 27-6l15-5 0 221c0 30-26 55-56 55z"/>
<glyph glyph-name="copy" unicode="&#100;" d="M475 46l0 311c0 2 0 4-2 6-2 2-4 3-7 3l-311 0c-2 0-4-1-6-3-2-2-3-4-3-6l0-311c0-3 1-5 3-7 2-2 4-2 6-2l311 0c3 0 5 0 7 2 2 2 2 4 2 7z m37 311l0-311c0-13-4-24-13-33-9-9-20-13-33-13l-311 0c-12 0-23 4-32 13-9 9-13 20-13 33l0 311c0 12 4 23 13 32 9 9 20 13 32 13l311 0c13 0 24-4 33-13 9-9 13-20 13-32z m-110 109l0-45-36 0 0 45c0 3-1 5-3 7-2 2-4 2-6 2l-311 0c-3 0-5 0-7-2-2-2-2-4-2-7l0-311c0-2 0-4 2-6 2-2 4-3 7-3l45 0 0-36-45 0c-13 0-24 4-33 13-9 9-13 20-13 32l0 311c0 13 4 24 13 33 9 9 20 13 33 13l311 0c12 0 23-4 32-13 9-9 13-20 13-33z"/>
<glyph glyph-name="export" unicode="&#113;" d="M435 186l0-117-358 0 0 117-69 0 0-152c0-19 16-34 35-34l426 0c19 0 35 15 35 34l0 152z m-185 11l-99 119c0 0-15 14 2 14 16 0 55 0 55 0 0 0 0 10 0 25 0 41 0 118 0 149 0 0-2 8 10 8 13 0 69 0 79 0 9 0 9-7 9-7 0-30 0-109 0-149 0-14 0-22 0-22 0 0 31 0 51 0 19 0 5-15 5-15 0 0-84-111-96-123-8-8-16 1-16 1z"/>
<glyph glyph-name="settings" unicode="&#114;" d="M510 284c0 8-9 13-16 13-24 0-44 14-53 35-9 22-3 47 14 63 6 5 6 14 2 20-12 15-26 29-41 41-6 4-14 4-19-2-15-17-43-23-64-14-22 9-36 31-35 55 1 8-5 14-12 15-19 3-39 3-58 0-7 0-13-7-12-14 0-24-14-46-36-55-20-8-48-2-63 15-5 5-13 6-19 1-16-12-30-26-42-41-4-6-4-14 2-19 18-16 23-42 14-64-9-21-30-35-55-35-9 1-14-5-15-12-3-19-3-39 0-58 0-8 9-13 16-13 23 1 44-13 53-35 9-22 3-47-14-63-6-5-6-14-2-20 12-15 26-29 41-41 6-4 14-4 19 2 15 17 43 23 64 14 22-9 36-31 35-55-1-8 5-14 12-15 10-1 20-2 30-2 9 0 18 1 28 2 7 0 13 7 12 14 0 24 14 46 35 55 22 8 49 2 64-15 5-5 13-6 19-1 16 12 29 26 42 41 4 6 4 14-2 19-18 16-23 42-14 64 8 21 29 35 52 35l3 0c8-1 14 5 15 12 3 19 3 39 0 58z m-254-114c-47 0-85 38-85 85 0 48 38 86 85 86 47 0 86-38 86-86 0-47-39-85-86-85z"/>
<glyph glyph-name="users" unicode="&#117;" d="M127 228c30 0 54 24 54 54 0 31-24 55-54 55-31 0-55-24-55-55 0-30 24-54 55-54z m47-61c-15 9-33 15-56 15-108 0-118-124-118-124l141 0 0 2c0 2 4 51 30 101 1 2 2 4 3 6z m165 127c45 0 81 36 81 80 0 44-36 80-81 80-44 0-80-36-80-80 0-44 36-80 80-80z m0-55c-158 0-172-181-172-181l345 0c0 0-14 181-173 181z"/>
<glyph glyph-name="ellipsis-horizontal" unicode="&#118;" d="M128 256c0 35-29 64-64 64-35 0-64-29-64-64 0-35 29-64 64-64 35 0 64 29 64 64z m64 0c0-35 29-64 64-64 35 0 64 29 64 64 0 35-29 64-64 64-35 0-64-29-64-64z m192 0c0-35 29-64 64-64 35 0 64 29 64 64 0 35-29 64-64 64-35 0-64-29-64-64z"/>
<glyph glyph-name="exit" unicode="&#120;" d="M399 201c-9-9-9-25 0-34 5-5 11-7 17-7 6 0 12 2 17 7l72 72c0 0 0 0 0 0 1 1 1 1 2 2 0 0 0 0 0 1 0 0 1 0 1 1 0 0 0 0 1 1 0 0 0 0 0 1 0 0 1 0 1 1 0 0 0 0 0 1 0 0 0 0 1 1 0 0 0 1 0 1 0 0 0 1 0 1 0 0 0 1 1 1 0 1 0 1 0 2 0 0 0 0 0 1 0 0 0 1 0 2 0 0 0 0 0 0 0 0 0 0 0 0 0 1 0 2 0 2 0 1 0 1 0 1 0 1 0 1 0 2-1 0-1 0-1 1 0 0 0 1 0 1 0 0 0 1 0 1-1 0-1 1-1 1 0 0 0 1 0 1 0 1-1 1-1 1 0 1 0 1 0 1-1 1-1 1-1 1 0 1-1 1-1 1 0 1 0 1 0 1-1 1-1 1-2 2l-72 72c-9 9-25 9-34 0-9-9-9-25 0-34l31-31-278 0c-13 0-24-11-24-24 0-13 11-24 24-24l278 0z m-399 247l0-384c0-13 11-24 24-24l304 0c13 0 24 11 24 24l0 96c0 13-11 24-24 24-13 0-24-11-24-24l0-72-256 0 0 336 256 0 0-72c0-13 11-24 24-24 13 0 24 11 24 24l0 96c0 13-11 24-24 24l-304 0c-13 0-24-11-24-24z"/>
<glyph glyph-name="ellipsis-vertical" unicode="&#122;" d="M311 155l0-54c0-8-3-15-8-20-5-5-12-8-20-8l-54 0c-8 0-15 3-20 8-5 5-8 12-8 20l0 54c0 8 3 15 8 20 5 5 12 8 20 8l54 0c8 0 15-3 20-8 5-5 8-12 8-20z m0 147l0-55c0-8-3-14-8-20-5-5-12-8-20-8l-54 0c-8 0-15 3-20 8-5 6-8 12-8 20l0 55c0 7 3 14 8 19 5 5 12 8 20 8l54 0c8 0 15-3 20-8 5-5 8-12 8-19z m0 146l0-55c0-7-3-14-8-19-5-6-12-8-20-8l-54 0c-8 0-15 2-20 8-5 5-8 12-8 19l0 55c0 8 3 14 8 19 5 6 12 8 20 8l54 0c8 0 15-2 20-8 5-5 8-11 8-19z"/>
<glyph glyph-name="checked" unicode="&#66;" d="M0 236c-4 4-6 10-6 14 0 4 2 10 6 14l28 27c7 8 19 8 27 0l2-2 108-116c4-4 10-4 14 0l264 274 2 0c8 8 20 8 28 0l27-28c8-7 8-19 0-27l-315-327c-4-4-8-6-14-6-6 0-10 2-13 6l-154 165z"/>
<glyph glyph-name="edit" unicode="&#67;" d="M479 479c-44 44-116 44-160 0l-293-293c-2-2-4-5-4-8l-22-161c-1-5 1-9 4-13 3-2 7-4 11-4 0 0 1 0 2 0l96 13c9 1 14 9 13 17-1 8-8 14-16 12l-78-10 15 112 118-118c3-3 7-4 10-4 4 0 8 1 11 4l293 293c21 21 33 50 33 80 0 30-12 59-33 80z m-154-36l49-49-267-268-50 49z m-149-386l-49 48 268 268 48-48z m287 289l-117 117c15 13 33 20 53 20 22 0 43-9 59-25 16-16 25-37 25-59 0-20-7-38-20-53z"/>
<glyph glyph-name="document" unicode="&#119;" d="M455 512l-398 0c-31 0-57-26-57-57l0-398c0-31 26-57 57-57l398 0c31 0 57 26 57 57l0 398c0 31-26 57-57 57z m-57-171l-284 0 0 57 284 0z m0-113l-284 0 0 56 284 0z m-85-114l-199 0 0 57 199 0z"/>
<glyph glyph-name="success" unicode="&#116;" d="M151 305l-36-36 115-115 256 256-35 35-221-220z m310-49c0-113-92-205-205-205-113 0-205 92-205 205 0 113 92 205 205 205 20 0 38-3 56-8l41 41c-30 10-64 18-97 18-141 0-256-115-256-256 0-141 115-256 256-256 141 0 256 115 256 256z"/>
<glyph glyph-name="badge-star" unicode="&#68;" d="M256 512c-141 0-256-115-256-256 0-142 115-257 256-257 142 0 257 115 257 257-1 141-115 256-257 256z m93-386l-93 48-92-48 17 102-75 74 104 15 46 93 46-93 104-15-75-74z"/>
<glyph glyph-name="arrow-right-t1" unicode="&#121;" d="M357 101l155 155-155 155-47-47 76-75-386 0 0-66 386 0-76-75z"/>
<glyph glyph-name="arrow-up-t2" unicode="&#70;" d="M396 220c6-5 8-12 8-21 0-8-2-15-8-21-13-13-26-13-40 0 0 0-100 96-100 96 0 0-100-96-100-96-14-13-27-13-40 0-6 6-8 13-8 21 0 9 2 16 8 21 0 0 120 115 120 115 5 5 12 8 20 8 8 0 15-3 20-8 0 0 120-115 120-115"/>
<glyph glyph-name="arrow-down-t2" unicode="&#71;" d="M396 293c0 0-120-115-120-115-6-6-12-9-20-9-8 0-14 3-20 9 0 0-120 115-120 115-6 5-8 12-8 21 0 8 2 15 8 21 13 13 26 13 40 0 0 0 100-96 100-96 0 0 100 96 100 96 14 13 27 13 40 0 6-6 8-13 8-21 0-9-2-16-8-21"/>
<glyph glyph-name="rounded-minus" unicode="&#75;" d="M256 512c-141 0-256-115-256-256 0-141 115-256 256-256 141 0 256 115 256 256 0 141-115 256-256 256z m0-478c-123 0-222 99-222 222 0 123 99 222 222 222 123 0 222-99 222-222 0-123-99-222-222-222z m102 239l-204 0c-9 0-17-8-17-17 0-9 8-17 17-17l204 0c9 0 17 8 17 17 0 9-8 17-17 17z"/>
<glyph glyph-name="rounded-plus" unicode="&#76;" d="M256 512c-141 0-256-115-256-256 0-141 115-256 256-256 141 0 256 115 256 256 0 141-115 256-256 256z m0-478c-123 0-222 99-222 222 0 123 99 222 222 222 123 0 222-99 222-222 0-123-99-222-222-222z m102 239l-85 0 0 85c0 9-8 17-17 17-9 0-17-8-17-17l0-85-85 0c-9 0-17-8-17-17 0-9 8-17 17-17l85 0 0-85c0-9 8-17 17-17 9 0 17 8 17 17l0 85 85 0c9 0 17 8 17 17 0 9-8 17-17 17z"/>
<glyph glyph-name="squared-arrow-down" unicode="&#77;" d="M256 365c-14 0-25-11-25-25l0-106-29 29c-10 9-26 9-36 0-9-10-9-26 0-36l72-72c10-10 26-10 36 0l72 72c9 10 9 26 0 36-10 9-26 9-36 0l-29-29 0 105c0 15-11 26-25 26z m201-365l-402 0c-30 0-55 25-55 55l0 402c0 30 25 55 55 55l402 0c30 0 55-25 55-55l0-402c0-30-25-55-55-55z m-402 490c-18 0-33-15-33-33l0-402c0-18 15-33 33-33l402 0c18 0 33 15 33 33l0 402c0 18-15 33-33 33z"/>
<glyph glyph-name="prize" unicode="&#78;" d="M458 405l-75 0c9 12 27 48-7 86-12 14-52 36-93 0-11-9-20-27-27-44-7 18-18 36-28 45-13 14-52 37-93 0-26-22-26-60-6-86l-75 0c-12 0-21-10-21-22l0-120c0-12 9-22 21-22l11 0 0-220c0-12 10-22 22-22l337 0c12 0 22 10 22 22l0 220 11 0c12 0 21 10 22 22l0 120c0 12-9 21-21 21z m-145 57c9 9 24 9 33 0 12-12 5-29 0-33-34-25-55-22-56-22-2 9 10 41 23 55z m-148 0c12 12 31 4 33 0 13-14 25-46 23-56-15-2-46 14-56 23-8 9-8 24 0 33z m-90-101l361 0 0-76-361 0c0 0 0 76 0 76z m327-319l-294 0 0 200 294 0z"/>
<glyph glyph-name="link" unicode="&#79;" d="M312 312c-6 7-12 12-20 17-19 12-41 18-64 18-32 0-62-12-85-35l-108-108c-22-23-35-53-35-84 0-66 53-120 119-120 32 0 62 12 85 35l89 89c2 2 3 4 3 6 0 5-4 9-9 9l-3 0c-19 0-37 4-55 11-3 1-7 0-9-2l-64-65c-20-20-53-20-73 0-20 20-20 53 0 73l109 108c20 20 52 20 72 0 14-12 35-12 48 0 6 6 10 14 10 22 1 10-3 20-10 26z m165 165c-47 47-122 47-169 0l-89-89c-3-3-4-7-2-10 1-3 4-5 8-5l3 0c19 0 37-4 54-11 4-1 7 0 10 2l64 64c20 20 52 20 72 0 20-20 20-52 0-72l-80-80 0-1-28-28c-20-20-53-20-73 0-13 13-34 13-48 0-5-5-9-13-9-21-1-10 3-20 9-27 10-10 22-18 35-24 1 0 3-1 5-2 2-1 4-1 5-2 2-1 4-1 6-2l5-1c3-1 7-2 10-2 4-1 9-1 13-1l6 0 6 0c1 0 3 1 6 1l2 0 6 1 3 0 5 1 1 0c21 5 40 16 55 31l109 109c47 47 47 122 0 169z"/>
<glyph glyph-name="arrow-up-t3" unicode="&#105;" d="M256 402c9 0 18-4 25-11l221-220c14-14 14-36 0-51-14-14-37-14-51 0l-195 195-195-194c-14-14-37-14-50 0-15 14-15 36 0 50l220 221c7 6 16 10 25 10z"/>
<glyph glyph-name="arrow-left-t3" unicode="&#72;" d="M110 256c0 9 4 18 11 25l220 220c14 15 36 15 51 0 14-14 14-36 0-50l-195-195 194-195c14-14 14-37 0-51-14-14-36-14-50 0l-221 221c-6 7-10 16-10 25z"/>
<glyph glyph-name="arrow-down-t3" unicode="&#73;" d="M256 110c-9 0-18 4-25 11l-220 220c-15 14-15 36 0 50 13 14 36 14 50 0l195-194 195 194c14 14 36 14 50 0 14-14 14-36 0-50l-220-220c-7-7-16-11-25-11z"/>
<glyph glyph-name="add-to-catalogue" unicode="&#74;" d="M347 508l-286 0c-34 0-61-28-61-61l0-381c0-34 27-61 61-61l175 0-13 14c-10 10-18 22-25 34l-3 4-134 0c-5 0-9 4-9 9l0 381c0 5 4 9 9 9l286 0c5 0 9-4 9-9l0-91 8 0c12 1 23 0 34-1l10-2 0 94c0 33-28 61-61 61z m133-339l-64 0 0 64c0 18-15 33-34 33-18 0-33-15-33-33l0-64-64 0c-18 0-33-15-33-34 0-18 15-33 33-33l64 0 0-64c0-18 15-33 33-33 19 0 34 15 34 33l0 64 64 0c18 0 33 15 33 33 0 19-15 34-33 34z"/>
<glyph glyph-name="success-t2" unicode="&#80;" d="M256 512c-141 0-256-115-256-256 0-141 115-256 256-256 141 0 256 115 256 256 0 141-115 256-256 256z m0-480c-123 0-224 100-224 224 0 123 101 224 224 224 124 0 224-101 224-224 0-124-100-224-224-224z m79 314l-113-113-45 46c-13 12-33 12-45 0-13-13-13-33 0-46l67-68c13-12 33-12 46 0l135 136c13 13 13 33 0 45-12 13-32 13-45 0z"/>
<glyph glyph-name="moderate-user" unicode="&#65;" d="M0 31l0 18c0 42 16 74 44 95 27 20 63 28 100 28 37 0 72-8 99-28 28-21 44-53 44-95l0-18z m223 85c-19 14-47 22-79 22-33 0-61-8-80-22-14-11-25-27-29-50l217 0c-4 23-15 39-29 50z m-161 166c0 45 37 81 82 81 44 0 81-36 81-81 0-45-37-81-81-81-45 0-82 36-82 81z m128 0c0 26-21 47-46 47-26 0-47-21-47-47 0-26 21-47 47-47 25 0 46 21 46 47z m102-2l11 60c1 4 2 7 5 10l125 125c7 7 18 7 25 0l49-49c7-7 7-18 0-24l-126-126c-2-3-5-4-9-5l-60-11c-12-2-22 9-20 20z m50 21l19 3 5 5-25 25-5-5-4-18z m48 32l43 44-25 25-43-44z m68 68l13 13-25 25-13-13z"/>
<glyph glyph-name="facebook-t2" unicode="&#82;" d="M482 512l-454 0c-15 0-28-13-28-28l0-454c0-15 13-28 28-28l244 0 0 198-66 0 0 77 66 0 0 56c0 66 40 102 99 102 28 0 53-2 60-3l0-69-41 0c-32 0-38-15-38-37l0-49 76 0-10-77-66 0 0-198 130 0c15 0 28 13 28 28l0 454c0 15-13 28-28 28z"/>
<glyph glyph-name="icon-edit-pencil-1" unicode="&#83;" d="M331 512l-122 0c-55 0-92-12-126-40-27-23-43-56-43-89 0-51 39-105 111-105 7 0 14 1 21 2l-1-3c-3-7-6-13-6-23 0-20 10-32 19-44l1-2-2 0c-29-2-84-6-125-30-47-29-51-70-51-82 0-47 44-95 143-95 115 0 175 63 175 126 0 46-27 69-56 93l-24 19c-8 6-17 14-17 29 0 14 9 23 18 31l0 1c27 21 56 44 56 95 0 51-31 77-47 90l41 0c0 0 1 0 1 0l35 22c1 1 1 2 1 3 0 1-1 2-2 2z m-148-483c-70 0-117 33-117 81 0 32 19 55 57 69 30 10 69 11 70 11 6 0 10 0 15-1 49-35 73-53 73-88-1-45-38-72-98-72z m-1 268c-59 0-83 77-83 118 0 21 5 38 15 50 10 13 28 22 46 22 54 0 84-73 84-123 0-8 0-32-17-48-11-12-29-19-45-19z m319-24l-64 0 0 64c0 2-1 3-3 3l-27 0c-2 0-3-1-3-3l0-64-64 0c-1 0-2-1-2-2l0-28c0-2 1-3 2-3l64 0 0-64c0-2 1-3 3-3l27 0c2 0 3 1 3 3l0 64 64 0c2 0 3 1 3 3l0 28c0 1-1 2-3 2z"/>
<glyph glyph-name="edit-pencil" unicode="&#99;" d="M493 358l-22-23-136 136 23 22c25 25 65 25 90 0l45-45c25-25 25-65 0-90z m-317-272c-6-6-6-16 0-23 7-6 17-6 23 0l249 249-23 23z m-113 113c-6-6-6-16 0-22 7-7 17-7 23 0l249 248-23 23z m295 204l-249-249c-13-13-13-33 0-45 12-13 32-13 45 0l249 248z m-204-362c-8 7-12 17-13 27-3 0-7-1-10-1-17 0-33 7-45 19-12 12-19 28-19 45 0 3 0 6 1 9-10 2-20 6-27 14-1 0-1 1-2 2l-39-156 156 39c-1 1-2 1-2 2z"/>
<glyph glyph-name="globe" unicode="&#84;" d="M256 102c-113 0-205 93-205 205 0 113 92 205 205 205 113 0 205-92 205-205 0-112-92-205-205-205z m0 384c-100 0-179-79-179-179 0-100 79-179 179-179 100 0 179 79 179 179 0 100-79 179-179 179z m0-384c-56 0-102 90-102 205 0 115 46 205 102 205 56 0 102-90 102-205 0-115-46-205-102-205z m0 384c-36 0-77-74-77-179 0-105 41-179 77-179 36 0 77 74 77 179 0 105-41 179-77 179z m179-99c0-8-5-13-13-13l-332 0c-8 0-13 5-13 13 0 7 5 12 13 12l332 0c8 0 13-7 13-12z m0-154c0-8-5-13-13-13l-332 0c-8 0-13 5-13 13 0 8 5 13 13 13l332 0c8 0 13-8 13-13z"/>
<glyph glyph-name="search" unicode="&#85;" d="M146 354c0 87 71 157 158 156 87 0 157-71 157-158-1-87-71-157-157-157-88 1-158 72-158 159z m46 0c1-62 50-111 112-111 62 1 111 51 111 113 0 61-50 110-111 110-62 0-112-51-112-112z m-108-252l100 100-33 32-100-99z"/>
<glyph glyph-name="edit-pencil-1" unicode="&#86;" d="M128 64l-96 0 0 96z m352 352l-320-320-96 96 320 320z m-448-416l0 32 352 0 0-32z"/>
<glyph glyph-name="home" unicode="&#87;" d="M421 229l0-138c0-5-2-9-6-12-3-4-8-6-13-6l-109 0 0 110-74 0 0-110-109 0c-5 0-10 2-13 6-4 3-6 7-6 12l0 138c0 0 0 0 0 0 0 1 0 1 0 1l164 136 165-136c0 0 0-1 0-1z m63 19l-17-21c-2-2-4-3-6-3l-1 0c-3 0-5 1-6 2l-198 165-198-165c-2-2-4-2-7-2-2 0-4 1-6 3l-17 21c-2 2-2 4-2 7 0 3 1 5 3 6l205 171c6 5 14 8 22 8 8 0 16-3 22-8l69-58 0 56c0 2 1 5 3 6 2 2 4 3 7 3l54 0c3 0 5-1 7-3 2-1 3-4 3-6l0-117 62-52c2-1 3-3 3-6 0-3 0-5-2-7z"/>
<glyph glyph-name="file-text-o" unicode="&#88;" d="M456 403c5-5 10-12 14-21 4-9 5-18 5-25l0-330c0-7-2-14-8-19-5-5-11-8-19-8l-384 0c-8 0-14 3-19 8-6 5-8 12-8 19l0 458c0 7 2 14 8 19 5 5 11 8 19 8l256 0c8 0 16-2 25-6 9-4 17-8 22-13z m-127 70l0-107 108 0c-2 5-4 9-7 11l-89 90c-2 2-6 4-12 6z m110-436l0 292-119 0c-8 0-14 3-19 8-6 5-8 12-8 20l0 118-220 0 0-438z m-293 246c0 3 1 5 3 7 2 2 4 3 6 3l202 0c2 0 4-1 6-3 2-2 3-4 3-7l0-18c0-3-1-5-3-6-2-2-4-3-6-3l-202 0c-2 0-4 1-6 3-2 1-3 3-3 6z m211-64c2 0 4 0 6-2 2-2 3-4 3-7l0-18c0-3-1-5-3-7-2-1-4-2-6-2l-202 0c-2 0-4 1-6 2-2 2-3 4-3 7l0 18c0 3 1 5 3 7 2 2 4 2 6 2z m0-73c2 0 4-1 6-2 2-2 3-4 3-7l0-18c0-3-1-5-3-7-2-1-4-2-6-2l-202 0c-2 0-4 1-6 2-2 2-3 4-3 7l0 18c0 3 1 5 3 7 2 1 4 2 6 2z"/>
<glyph glyph-name="bookmark-star-link" unicode="&#111;" d="M435 494c-11 12-26 18-42 18l-273 0c-33 0-60-27-60-60l0-435c0-9 8-17 18-17 3 0 5 1 6 1l153 64c11 5 23 5 34 0l157-64c2-2 5-2 6-2l1 0c9 0 17 8 17 17l0 436c1 16-6 30-17 42z m-15-42l0-411-136 57c-9 3-19 5-30 5-10 0-19-2-30-6l-129-55 0 410c0 14 12 26 26 26l272 0c15 0 27-12 27-26z m-72-145c3 3 5 9 3 14-1 5-5 8-11 9l-46 7c-2 0-4 1-5 3l-20 43c-2 5-7 7-12 7-5 0-10-2-12-7l-20-43c-1-2-3-2-5-3l-46-7c-5-1-9-4-11-9-2-5 0-11 3-14l34-33c1-1 2-3 1-5l-7-47c-1-4 0-7 3-11 4-5 11-6 16-4l42 22c1 1 4 1 6 0l41-22c2-1 4-1 6-1 5 0 8 2 11 5 3 3 3 7 3 11l-8 47c0 2 0 4 1 5z"/>
<glyph glyph-name="upload" unicode="&#89;" d="M510 178c0 10-8 19-19 19-10 0-19-9-19-19l0-113-432 0 0 113c0 10-9 19-19 19-11 0-19-9-19-19l0-124c0-2 0-3 0-4 0-2 0-3 0-4 0-11 8-20 19-20l471 0c10 0 19 9 19 20 0 1-1 2-1 4 0 1 1 2 1 4-1 0-1 124-1 124z m-253-60c10 0 19 8 19 19l0 284 85-85c4-4 9-6 13-6 5 0 10 2 14 6 8 7 8 20 0 27l-118 119c-7 8-20 8-27 0l-117-119c-8-7-8-20 0-27 4-4 8-6 13-6 5 0 10 2 14 6l85 85 0-284c0-11 8-19 19-19z"/>
<glyph glyph-name="delete" unicode="&#90;" d="M413 381l-77 0 0 18c0 21-17 38-38 38l-84 0c-21 0-38-17-38-38l0-18-77 0c-7 0-13-6-13-13 0-8 6-14 13-14l21 0 0-233c0-25 20-46 46-46l180 0c25 0 46 21 46 46l0 191c0 7-6 13-13 13-7 0-13-6-13-13l0-191c0-11-9-19-20-19l-180 0c-11 0-20 8-20 19l0 233 266 0c8 0 14 6 14 14 0 7-6 13-13 13z m-103 0l-108 0 0 18c0 6 5 11 12 11l84 0c7 0 12-5 12-11z m-97-56c-7 0-13-6-13-13l0-168c0-7 6-13 13-13 7 0 13 6 13 13l0 168c0 7-6 13-13 13z m86 0c-7 0-13-6-13-13l0-168c0-7 6-13 13-13 7 0 13 6 13 13l0 168c0 7-6 13-13 13z"/>
<glyph glyph-name="rotate-image" unicode="&#48;" d="M151 151l210 0 0 210-210 0z m24 186l162 0 0-162-162 0z m-12-267l-35 0c-32 0-58 26-58 58l0 54 27-27c2-3 5-4 8-4 3 0 6 1 8 4 5 4 5 11 0 16l-47 47c-4 4-11 4-16 0l-47-47c-4-5-4-12 0-16 5-5 12-5 17 0l27 27 0-54c0-45 36-81 81-81l35 0c6 0 12 5 12 11 0 7-6 12-12 12z m346 287c-5 5-12 5-17 0l-27-27 0 54c0 45-36 81-81 81l-35 0c-6 0-12-5-12-11 0-7 6-12 12-12l35 0c32 0 58-26 58-58l0-54-27 27c-4 5-11 5-16 0-5-4-5-11 0-16l47-47c2-2 5-3 8-3 3 0 6 1 8 3l47 47c4 5 4 12 0 16z"/>
<glyph glyph-name="arrow-right-t3" unicode="&#69;" d="M392 231l-221-221c-14-14-36-14-50 0-14 14-14 37 0 51l194 195-194 195c-14 14-14 36 0 50 14 15 36 15 50 0l221-220c7-7 10-16 10-25 0-9-3-18-10-25z"/>
<glyph glyph-name="phone-receiver" unicode="&#49;" d="M512 108c1-8-2-16-8-22l-72-71c-3-4-7-7-13-9-5-3-10-5-15-5 0 0-2 0-3-1-2 0-5 0-7 0-7 0-18 1-34 4-15 2-34 8-56 17-22 9-48 23-76 41-28 19-58 44-90 76-25 25-46 49-63 72-16 23-30 44-40 63-10 19-17 37-22 53-6 15-9 29-11 40-2 12-2 21-2 27 0 7 1 10 1 11 0 5 2 10 5 15 2 6 5 10 9 13l72 72c5 5 11 8 17 8 5 0 9-2 13-4 3-3 6-6 9-10l58-110c3-6 4-12 3-19-2-7-5-13-10-18l-26-26c-1-1-2-2-2-4-1-1-1-3-1-4 2-7 5-16 10-26 4-8 11-19 20-31 9-13 22-27 38-44 17-16 31-29 44-38 12-10 23-16 31-21 9-4 15-7 20-8l7-1c0 0 2 0 3 1 2 0 3 1 4 2l31 31c6 6 14 9 22 9 7 0 11-1 15-3l1 0 104-62c8-5 12-11 14-18z"/>
<glyph glyph-name="close-envelope" unicode="&#50;" d="M256 183l-63 55-181-155c6-6 15-10 25-10l438 0c10 0 19 4 25 10l-181 155z m244 246c-6 6-15 10-25 10l-438 0c-10 0-19-4-25-10l244-210z m-500-22l0-304 177 150z m335-154l177-150 0 304z"/>
<glyph glyph-name="send" unicode="&#51;" d="M265 239l-208-20-55-176c-5-14 3-30 18-34 6-2 14-2 19 2l459 222c12 6 18 21 12 34-3 6-7 10-12 12l-459 222c-13 7-30 1-36-12-3-7-4-14-2-20l55-176 209-20c9-2 15-10 14-19 0-7-6-13-14-15z"/>
<glyph glyph-name="close" unicode="&#115;" d="M317 256l182 183c17 16 17 44 0 60-16 17-44 17-60 0l-183-182-183 182c-16 17-44 17-60 0-17-16-17-44 0-60l182-183-182-183c-17-16-17-44 0-60 16-17 44-17 60 0l183 182 183-182c16-17 44-17 60 0 17 16 17 44 0 60z"/>
<glyph glyph-name="check" unicode="&#53;" d="M469 297c-11 0-21-9-21-20l0-21c0-54-21-106-59-144-39-38-90-59-144-59 0 0 0 0 0 0-113 0-204 91-204 203 0 54 22 105 60 144 38 38 90 59 144 59 0 0 0 0 0 0 29 0 56-6 83-17 10-5 22 0 27 10 5 11 0 23-11 28-31 14-65 21-99 21 0 0 0 0 0 0-65 0-127-26-173-72-46-46-72-108-72-173 0-65 25-127 72-173 46-46 107-72 173-72 0 0 0 0 0 0 65 0 127 26 173 72 46 46 72 107 72 173l0 21c0 11-10 20-21 20z m37 175c-8 8-21 8-29 0l-232-232-53 53c-8 8-21 8-29 0-8-8-8-21 0-29l67-68c4-4 10-6 15-6 5 0 10 2 14 6l247 247c8 8 8 21 0 29z"/>
<glyph glyph-name="notification" unicode="&#54;" d="M491 159c-27 0-50 22-50 50l0 117c0 103-83 186-185 186-102 0-185-83-185-186l0-117c0-28-23-50-50-50-12 0-21-9-21-21 0-11 9-20 21-20l470 0c12 0 21 9 21 20 0 12-9 21-21 21z m-394 0c10 14 15 31 15 50l0 117c0 80 65 144 144 144 79 0 144-64 144-144l0-117c0-19 6-36 15-50l-318 0z m210-97c-10 6-22 2-28-7-7-13-24-17-36-10-4 2-8 6-10 10-6 9-18 13-28 7-10-6-13-18-8-28 6-10 15-19 25-25 11-6 22-9 34-9 23 0 46 12 59 34 5 10 2 22-8 28z"/>
<glyph glyph-name="attention" unicode="&#55;" d="M256 337c-11 0-19-8-19-19l0-109c0-11 8-18 19-18 11 0 19 7 19 18l0 109c0 11-8 19-19 19z m15-206c0 6 0 10-4 14-7 8-18 8-26 0-4-4-4-11-4-14 0-7 0-11 4-15 4-4 12-4 15-4 4 0 9 0 10 4 0 0 1 1 0 2 3 4 5 9 5 13z m232 11l-178 310c-12 25-40 42-69 42-28 0-53-15-69-41l-179-311c-15-26-15-57 0-82 12-25 40-41 70-41l356 0c30 0 56 15 69 41 16 25 16 56 0 82z m-30-67c-5-14-19-22-36-22l-359 0c-14 0-28 8-37 22-8 14-8 31 0 45l179 311 0 0c5 14 19 23 36 23 16 0 31-9 39-23l178-311c9-14 9-31 0-45z"/>
<glyph glyph-name="tip" unicode="&#56;" d="M256 512c-141 0-256-115-256-256 0-141 115-256 256-256 141 0 256 115 256 256 0 141-115 256-256 256z m-3-374c-23 0-41 18-41 44l80 0c2-23-16-44-39-44z m39 67l-74 0c-3 23-54 41-54 95 0 58 43 89 89 89 47 0 90-31 90-89 3-57-51-75-51-95z"/>
<glyph glyph-name="registered-player" unicode="&#57;" d="M344 44c-8 0-17 6-17 17l0 44c0 39-33 71-72 71l-153 0c-39 0-71-32-71-71l0-44c0-9-7-17-18-17-11 0-13 6-13 15l0 43c0 59 46 105 105 105l152 0c57 0 105-46 105-105l0-43c-3-9-9-15-18-15z m-163 217c-57 0-105 46-105 105 0 59 46 102 105 102 59 0 102-45 102-104 0-59-46-103-102-103z m0 175c-39 0-72-33-72-72 0-39 33-70 72-70 39 0 72 33 72 72 0 39-35 70-72 70z m229-218c-5 0-9 2-11 4l-44 44c-6 6-6 17 0 24 7 6 18 6 24 0l33-33 76 76c7 7 17 7 24 0 7-6 7-17 0-24l-87-87c-9-2-13-4-15-4z"/>
<glyph glyph-name="share-document" unicode="&#33;" d="M343 0l-227 0c-55 0-99 44-99 99l0 228c0 54 44 99 99 99 11 0 20-9 20-20 0-11-9-20-20-20-33 0-60-26-60-59l0-228c0-33 27-59 60-59l227 0c33 0 60 26 60 59l0 135c0 11 8 20 20 20 11 0 19-9 19-20l0-135c0-55-45-99-99-99z m-146 238c-11 0-19 9-19 20l0 96c0 39 31 70 69 70l229 0c11 0 19-9 19-20 0-11-8-20-19-20l-229 0c-16 0-30-13-30-30l0-96c0-11-9-20-20-20z m279 146c-6 0-10 2-14 6l-89 88c-8 8-8 21 0 28 8 8 20 8 28 0l88-88c8-8 8-21 0-28-4-4-9-6-13-6z m-83-83c-6 0-10 2-14 6-8 8-8 21 0 28l83 83c8 8 20 8 27 0 8-8 8-21 0-28l-82-83c-4-4-10-6-14-6z"/>
<glyph glyph-name="play-button" unicode="&#81;" d="M421 313l-279 183c-48 32-87 11-87-47l0-386c0-58 39-79 87-47l279 182c48 31 48 83 0 115z"/>
<glyph glyph-name="pause-button" unicode="&#34;" d="M81 512l137 0 0-512-137 0z m213 0l137 0 0-512-137 0z"/>
<glyph glyph-name="pause" unicode="&#35;" d="M208 410c-1 0-1 0-2 0l0 0-53 0c-6 0-11-5-11-11 0 0 0 0 0 0l0 0 0-286 0 0c0 0 0 0 0 0 0-6 5-11 11-11l55 0c6 0 11 5 11 11 0 0 0 0 0 0l0 0 0 286c0 0 0 0 0 0 0 6-5 11-11 11z m162-297l0 286c0 0 0 0 0 0 0 6-5 11-11 11-1 0-1 0-2 0l0 0-53 0c-6 0-11-5-11-11 0 0 0 0 0 0l0 0 0-286 0 0c0 0 0 0 0 0 0-6 5-11 11-11l55 0c6 0 11 5 11 11 0 0 0 0 0 0z"/>
<glyph glyph-name="calendar-icon" unicode="&#36;" d="M19 20l474 0c11 0 19 8 19 18l0 403c0 10-8 18-19 18l-89 0 0 15c0 10-8 18-18 18-10 0-18-8-18-18l0-15-221 0 0 15c0 10-8 18-18 18-10 0-18-8-18-18l0-15-92 0c-11 0-19-8-19-18l0-404c0-9 9-17 19-17z m18 403l74 0 0-10c0-10 8-18 18-18 10 0 18 8 18 18l0 10 221 0 0-10c0-10 8-18 18-18 10 0 18 8 18 18l0 10 72 0 0-47-439 0c0 0 0 47 0 47z m0-83l438 0 0-284-438 0c0 0 0 284 0 284z m352-104l-266 0c-5 0-10 4-10 10 0 5 5 10 10 10l266 0c5 0 10-5 10-10 0-5-5-10-10-10z m-119-106l-147 0c-5 0-10 5-10 10 0 6 5 10 10 10l147 0c6 0 10-4 10-10 0-5-4-10-10-10z"/>
<glyph glyph-name="clock-2" unicode="&#52;" d="M256 0c141 0 256 115 256 256 0 141-115 256-256 256-141 0-256-115-256-256 0-141 115-256 256-256z m0 476c122 0 220-98 220-220 0-122-98-220-220-220-122 0-220 99-220 220 0 122 98 220 220 220z m-12-250l85 0c11 0 19 8 19 18 0 10-8 18-19 18l-67 0 0 105c0 11-8 19-18 19-10 0-18-8-18-19l0-123c0-10 8-18 18-18z"/>
<glyph glyph-name="share-symbol" unicode="&#37;" d="M416 187c-29 0-55-15-72-36l-159 81c2 8 4 16 4 24 0 9-2 18-5 26l158 81c17-23 44-38 75-38 51 0 93 42 93 94 0 51-42 93-93 93-52 0-94-42-94-93 0-9 2-17 4-25l-158-81c-18 22-44 36-73 36-52 0-94-42-94-93 0-51 42-93 93-93 31 0 58 15 75 37l157-80c-2-9-4-18-4-27 0-51 42-93 93-93 52 0 94 42 94 93 0 52-42 94-94 94z"/>
<glyph glyph-name="double-tick-indicator" unicode="&#40;" d="M387 372l-31 31-138-138 30-31z m92 31l-231-233-92 93-31-31 123-123 264 263z m-479-171l123-123 31 31-123 123z"/>
</font>
</defs>
</svg>
